<?xml version="1.0" standalone="no"?>
<!DOCTYPE svg PUBLIC "-//W3C//DTD SVG 20010904//EN"
 "http://www.w3.org/TR/2001/REC-SVG-20010904/DTD/svg10.dtd">
<svg version="1.0" xmlns="http://www.w3.org/2000/svg"
 width="1417.000000pt" height="1417.000000pt" viewBox="0 0 1417.000000 1417.000000"
 preserveAspectRatio="xMidYMid meet">
<metadata>
Created by potrace 1.11, written by Peter Selinger 2001-2013
</metadata>
<g transform="translate(0.000000,1417.000000) scale(0.100000,-0.100000)"
fill="#000000" stroke="none">
<path d="M6729 14156 c-2 -2 -60 -7 -129 -11 -69 -4 -132 -8 -140 -10 -8 -2
-49 -6 -90 -10 -86 -8 -144 -14 -180 -20 -22 -3 -76 -10 -158 -20 -55 -7 -168
-27 -182 -32 -8 -3 -31 -7 -50 -9 -33 -3 -75 -11 -75 -14 0 -1 -11 -3 -25 -6
-74 -12 -109 -19 -200 -40 -36 -9 -75 -18 -87 -20 -12 -2 -34 -9 -48 -14 -14
-5 -25 -7 -25 -4 0 4 -6 1 -13 -5 -8 -6 -17 -8 -20 -4 -4 3 -13 0 -22 -7 -8
-7 -15 -10 -15 -7 0 3 -15 1 -32 -4 -31 -9 -49 -14 -88 -24 -8 -2 -16 -4 -17
-5 -2 -2 -6 -3 -10 -4 -79 -21 -451 -142 -513 -167 -116 -48 -297 -120 -305
-122 -5 -2 -46 -20 -89 -40 -43 -20 -81 -37 -83 -37 -9 0 -338 -164 -375 -187
-21 -13 -38 -20 -38 -16 0 5 -4 3 -8 -3 -4 -6 -41 -28 -82 -50 -41 -21 -77
-42 -80 -45 -3 -3 -21 -14 -40 -24 -54 -28 -245 -148 -248 -157 -2 -5 -8 -6
-13 -2 -5 3 -9 0 -9 -5 0 -6 -4 -11 -9 -11 -10 0 -168 -105 -189 -126 -7 -8
-20 -14 -28 -14 -8 0 -14 -3 -14 -7 -1 -5 -33 -30 -72 -58 -39 -27 -85 -62
-103 -77 -18 -16 -37 -28 -43 -28 -6 0 -12 -3 -14 -7 -1 -5 -48 -44 -102 -87
-55 -44 -107 -87 -116 -96 -9 -9 -25 -23 -37 -31 -24 -17 -131 -110 -222 -194
-98 -90 -376 -370 -456 -459 -38 -43 -79 -88 -90 -101 -27 -30 -49 -56 -130
-155 -38 -47 -72 -87 -75 -90 -3 -3 -34 -43 -70 -90 -35 -47 -67 -87 -71 -90
-3 -3 -18 -23 -32 -45 -34 -51 -163 -237 -174 -250 -33 -38 -254 -406 -344
-572 -79 -144 -259 -515 -259 -532 0 -3 -8 -22 -19 -41 -10 -19 -19 -37 -19
-40 -1 -7 -16 -46 -44 -115 -14 -33 -37 -91 -51 -130 -15 -38 -32 -83 -38
-100 -15 -36 -14 -33 -24 -70 -4 -16 -11 -34 -16 -40 -4 -5 -8 -14 -8 -20 -1
-5 -13 -48 -28 -95 -14 -47 -24 -85 -22 -86 2 0 -2 -8 -10 -17 -7 -10 -10 -17
-6 -17 4 0 2 -7 -5 -15 -7 -8 -10 -15 -6 -15 3 0 1 -12 -5 -27 -6 -16 -12 -35
-14 -43 -5 -20 -31 -117 -44 -158 -5 -18 -10 -35 -10 -37 -1 -3 -1 -6 -2 -7 0
-2 -2 -10 -4 -18 -26 -116 -36 -158 -41 -175 -3 -11 -7 -34 -9 -52 -2 -18 -6
-36 -9 -41 -5 -9 -9 -24 -25 -112 -14 -79 -21 -120 -26 -158 -2 -18 -6 -41 -9
-50 -6 -19 -12 -55 -21 -122 -3 -25 -8 -56 -10 -70 -2 -14 -7 -52 -11 -85 -3
-33 -7 -71 -9 -85 -2 -14 -6 -59 -10 -100 -3 -41 -8 -93 -11 -115 -27 -257
-24 -863 6 -1205 11 -122 13 -149 25 -240 3 -25 8 -63 10 -85 3 -22 7 -49 9
-60 2 -11 7 -45 12 -75 4 -30 8 -57 9 -60 1 -3 5 -27 10 -55 7 -48 10 -63 19
-104 2 -10 7 -36 10 -57 4 -22 8 -46 11 -54 4 -14 8 -36 20 -97 3 -16 13 -57
21 -93 9 -36 18 -72 19 -80 2 -8 4 -15 5 -15 1 0 4 -11 6 -25 3 -14 10 -43 16
-65 7 -22 12 -44 13 -50 0 -5 3 -14 6 -20 4 -5 10 -28 14 -50 4 -22 10 -44 13
-50 4 -5 7 -14 8 -20 1 -5 10 -37 20 -70 10 -33 19 -62 19 -65 1 -3 7 -18 13
-33 7 -16 12 -36 12 -46 0 -10 3 -21 7 -25 5 -4 8 -11 9 -14 0 -4 3 -14 6 -22
3 -8 16 -44 28 -80 21 -64 63 -176 80 -215 4 -11 18 -47 31 -80 12 -33 26 -64
31 -69 4 -6 8 -16 8 -23 0 -6 14 -42 30 -78 16 -36 43 -94 60 -130 17 -36 30
-70 30 -74 0 -5 7 -14 15 -21 9 -7 14 -15 11 -17 -4 -4 55 -123 167 -333 51
-97 172 -302 235 -400 133 -206 269 -402 284 -408 5 -2 8 -8 8 -13 0 -5 7 -17
15 -26 8 -10 44 -56 80 -103 36 -47 71 -92 78 -100 28 -35 172 -206 182 -216
5 -6 39 -44 75 -85 68 -78 460 -476 460 -467 0 3 30 -23 67 -58 97 -91 249
-218 373 -314 25 -19 47 -37 50 -40 9 -9 85 -65 122 -90 21 -14 38 -28 38 -32
0 -5 7 -8 15 -8 8 0 15 -4 15 -10 0 -5 6 -10 14 -10 8 0 16 -4 18 -8 5 -14
375 -260 428 -285 8 -4 27 -15 42 -25 45 -29 259 -148 338 -189 41 -21 78 -42
81 -46 3 -5 10 -9 15 -10 5 0 68 -28 139 -62 105 -51 283 -129 420 -184 11 -5
31 -13 45 -19 87 -38 535 -189 580 -197 3 0 10 -3 15 -7 6 -3 24 -8 40 -9 17
-2 32 -7 35 -10 3 -4 19 -9 35 -12 17 -3 55 -13 85 -22 30 -8 64 -17 75 -19
11 -2 61 -14 110 -25 50 -12 100 -24 113 -26 12 -3 34 -8 50 -11 15 -3 40 -7
57 -10 16 -2 37 -7 47 -10 25 -7 58 -14 103 -18 22 -3 47 -7 55 -10 8 -2 35
-8 60 -11 25 -4 54 -8 65 -10 11 -2 45 -6 75 -10 30 -3 62 -8 70 -10 8 -2 44
-6 80 -10 36 -3 76 -7 90 -9 116 -19 504 -39 750 -38 230 0 575 17 725 36 17
3 62 7 100 11 39 4 79 9 90 12 21 4 111 15 133 16 6 0 12 4 12 8 0 5 6 6 14 3
8 -3 40 0 73 6 32 6 74 13 93 16 19 2 46 7 60 10 14 3 35 8 48 10 12 2 32 6
45 9 12 2 36 7 52 10 17 3 37 8 45 10 8 2 30 7 49 10 19 3 38 8 41 10 4 3 25
7 46 11 22 3 46 10 55 15 9 4 19 6 22 2 4 -3 13 0 22 7 8 7 15 10 15 7 0 -3
15 -1 33 4 17 6 39 12 47 14 8 2 17 4 20 5 3 1 8 2 13 1 4 -1 23 5 42 13 19 8
35 13 35 11 0 -2 24 4 54 15 30 10 57 16 60 13 3 -4 6 0 6 7 0 7 3 11 6 8 5
-5 63 10 114 29 21 9 20 8 73 23 26 7 50 16 53 21 3 5 13 9 22 9 16 0 121 37
189 66 17 8 34 14 38 14 9 0 279 112 370 155 42 19 81 35 86 35 5 0 9 5 9 12
0 6 3 9 6 5 3 -3 26 6 50 19 24 14 44 21 44 17 0 -4 4 -3 8 2 4 6 50 32 102
58 140 70 260 137 402 222 9 5 43 26 75 45 32 19 63 37 68 39 6 2 12 7 15 10
3 4 43 31 90 61 47 30 87 58 88 63 2 4 8 7 13 7 8 0 107 66 119 80 3 3 37 28
75 55 66 46 284 212 295 224 3 4 32 28 65 55 75 62 80 67 133 115 23 22 42 38
42 36 0 -15 434 415 540 534 36 40 78 87 94 105 15 17 44 51 65 76 20 25 38
47 42 50 3 3 32 39 65 80 32 41 64 80 69 86 34 37 253 338 300 413 6 9 33 50
60 91 86 132 155 244 168 273 6 15 15 27 19 27 4 0 8 4 8 9 0 4 22 46 48 92
27 46 55 99 63 117 7 17 17 32 21 32 5 0 8 9 8 19 0 11 4 22 9 25 20 13 291
599 291 630 0 3 9 25 19 49 50 112 172 472 222 657 7 25 14 50 15 55 24 76 93
373 89 383 -2 6 -1 12 4 12 4 0 8 6 9 13 1 17 10 67 17 97 3 14 8 34 10 45 1
11 6 38 10 60 4 22 12 70 19 108 8 41 9 67 3 67 -6 0 -5 5 1 12 5 7 13 29 16
48 10 62 20 154 20 192 1 21 4 38 7 38 3 0 6 6 6 13 0 21 14 190 18 227 16
136 24 781 11 950 -3 41 -8 111 -11 155 -3 44 -8 98 -10 120 -2 22 -7 65 -10
95 -3 30 -7 66 -9 80 -2 14 -7 52 -11 85 -4 32 -8 66 -10 75 -1 8 -5 36 -9 61
-4 25 -9 57 -11 70 -2 13 -6 41 -9 62 -4 21 -13 71 -20 110 -8 40 -17 86 -20
102 -3 17 -10 50 -16 75 -6 25 -13 59 -16 75 -11 52 -12 60 -14 60 -1 0 -4 14
-6 30 -3 17 -7 37 -11 45 -7 16 -8 22 -17 60 -3 14 -10 43 -16 65 -6 22 -13
48 -15 59 -5 19 -29 102 -77 256 -100 322 -257 711 -404 1001 -35 69 -64 131
-64 138 0 6 -4 11 -9 11 -5 0 -11 8 -14 18 -6 17 -78 150 -113 209 -10 17 -34
57 -53 90 -97 168 -382 593 -403 601 -4 2 -8 10 -8 17 0 7 -4 15 -8 17 -4 2
-41 47 -82 101 -41 53 -78 97 -82 97 -4 0 -8 6 -8 13 0 6 -21 35 -46 62 -24
28 -50 56 -56 64 -185 223 -499 542 -737 749 -47 41 -87 79 -89 83 -2 5 -8 9
-13 9 -8 0 -43 28 -83 66 -10 9 -62 49 -191 148 -22 17 -42 33 -45 36 -3 3
-54 41 -115 83 -60 43 -118 84 -127 92 -9 7 -27 19 -40 26 -13 6 -25 15 -28
19 -16 21 -551 340 -570 340 -5 0 -15 6 -22 13 -16 15 -422 216 -448 222 -3 0
-27 11 -55 24 -82 37 -383 156 -485 191 -52 18 -106 37 -120 43 -14 5 -34 12
-44 14 -11 2 -40 11 -65 19 -25 9 -53 17 -61 19 -8 2 -15 4 -15 5 0 1 -7 3
-15 5 -8 2 -46 13 -85 25 -38 12 -79 23 -90 25 -39 9 -190 47 -205 53 -8 3
-24 7 -35 9 -11 1 -60 12 -110 23 -49 11 -101 22 -115 24 -14 3 -50 10 -80 16
-30 6 -71 13 -90 16 -19 2 -42 6 -50 9 -8 2 -34 6 -57 9 -77 10 -118 16 -138
20 -11 2 -47 7 -80 10 -33 4 -71 9 -85 11 -14 2 -52 7 -85 9 -58 5 -117 11
-235 22 -65 6 -845 15 -851 10z m831 -349 c36 -3 85 -7 110 -10 39 -6 76 -9
215 -22 17 -2 46 -6 65 -9 30 -5 68 -10 220 -31 37 -5 174 -30 215 -39 11 -3
65 -14 120 -25 55 -11 145 -32 199 -46 55 -14 109 -27 120 -29 25 -6 175 -49
266 -77 78 -25 83 -26 92 -28 5 -1 25 -7 45 -15 43 -16 65 -23 76 -25 4 0 20
-7 37 -16 16 -8 38 -15 50 -15 11 0 20 -5 20 -12 0 -6 3 -9 6 -5 4 3 19 0 34
-8 15 -8 30 -11 34 -8 3 4 6 1 6 -5 0 -7 3 -11 8 -10 8 1 30 -6 89 -33 24 -10
47 -19 53 -19 5 0 35 -12 67 -26 32 -14 74 -33 93 -42 19 -8 91 -42 159 -74
68 -32 127 -58 132 -58 5 0 9 -4 9 -10 0 -5 8 -10 18 -10 10 0 22 -4 27 -9 6
-4 59 -34 120 -66 60 -32 142 -77 183 -101 40 -24 78 -44 83 -44 5 0 9 -4 9
-10 0 -5 6 -10 14 -10 7 0 19 -7 26 -15 7 -8 16 -12 21 -9 5 3 9 1 9 -4 0 -5
14 -15 30 -22 17 -7 30 -16 30 -21 0 -5 4 -9 9 -9 10 0 225 -142 326 -215 28
-19 61 -43 75 -53 14 -9 27 -19 30 -22 3 -3 34 -27 70 -54 36 -28 72 -56 80
-63 8 -7 47 -39 85 -69 70 -56 159 -131 201 -169 12 -11 54 -49 94 -85 68 -61
332 -320 327 -320 -2 0 29 -33 68 -74 38 -40 81 -86 94 -102 24 -28 129 -150
177 -206 13 -15 24 -31 24 -34 0 -4 8 -14 18 -23 9 -9 33 -36 52 -61 19 -25
38 -46 42 -48 4 -2 8 -8 8 -14 0 -6 12 -25 28 -44 52 -63 72 -92 72 -103 0 -6
4 -11 8 -11 10 0 72 -87 72 -100 0 -6 5 -10 10 -10 6 0 10 -6 10 -14 0 -8 4
-16 8 -18 5 -1 26 -30 47 -63 22 -33 42 -62 45 -65 3 -3 13 -18 23 -35 9 -16
45 -76 80 -133 74 -122 122 -204 145 -252 9 -19 20 -37 23 -40 15 -13 250
-502 274 -570 1 -3 6 -16 12 -30 6 -14 23 -56 38 -95 16 -38 32 -74 36 -80 5
-5 9 -19 9 -31 0 -13 4 -25 9 -28 5 -3 11 -16 14 -28 3 -13 19 -60 35 -105 17
-46 27 -83 24 -83 -4 0 -2 -4 4 -8 6 -4 16 -27 23 -52 19 -72 19 -73 31 -105
16 -46 90 -306 88 -313 -1 -4 1 -14 5 -22 8 -22 38 -150 44 -185 2 -16 8 -43
13 -60 5 -16 12 -46 15 -65 3 -19 10 -57 15 -85 5 -27 12 -62 14 -78 3 -15 9
-53 15 -85 5 -31 12 -76 15 -99 3 -22 7 -52 10 -65 3 -12 8 -50 11 -83 3 -33
8 -73 9 -90 17 -146 20 -179 31 -365 14 -231 8 -810 -10 -930 -3 -22 -10 -90
-20 -205 -2 -22 -6 -60 -9 -85 -4 -25 -8 -58 -11 -75 -3 -28 -8 -57 -21 -142
-10 -66 -12 -77 -23 -143 -6 -36 -13 -76 -16 -90 -3 -14 -7 -34 -9 -45 -21
-107 -84 -368 -117 -480 -22 -77 -42 -147 -44 -155 -2 -8 -4 -15 -5 -15 -1 0
-3 -7 -5 -15 -1 -8 -10 -37 -20 -65 -9 -27 -18 -54 -19 -60 -2 -5 -5 -17 -8
-25 -3 -8 -16 -44 -28 -80 -12 -36 -25 -72 -28 -80 -3 -8 -6 -17 -7 -20 -6
-16 -28 -74 -42 -110 -103 -254 -338 -762 -361 -780 -4 -3 -16 -23 -28 -45
-36 -71 -69 -130 -75 -135 -3 -3 -8 -10 -10 -16 -16 -44 -302 -477 -396 -600
-90 -117 -267 -341 -277 -349 -6 -5 -24 -26 -40 -45 -95 -116 -431 -461 -560
-575 -38 -33 -78 -69 -90 -80 -46 -43 -147 -127 -276 -229 -163 -128 -147
-116 -190 -146 -19 -13 -37 -27 -40 -30 -12 -14 -353 -241 -415 -276 -11 -6
-50 -30 -87 -53 -37 -22 -72 -41 -78 -41 -5 0 -10 -4 -10 -9 0 -5 -8 -11 -17
-14 -10 -4 -58 -29 -108 -57 -114 -64 -400 -204 -530 -260 -184 -79 -230 -98
-255 -105 -14 -4 -30 -11 -35 -16 -6 -4 -22 -10 -37 -13 -14 -2 -34 -9 -44
-15 -79 -45 -779 -247 -954 -275 -19 -3 -57 -10 -85 -15 -59 -13 -97 -19 -145
-26 -19 -3 -46 -8 -60 -12 -14 -3 -38 -7 -55 -8 -16 -2 -43 -6 -60 -9 -44 -7
-181 -24 -255 -31 -36 -4 -83 -9 -105 -11 -190 -22 -797 -36 -824 -20 -5 4
-12 2 -16 -4 -4 -6 -11 -8 -16 -4 -6 3 -51 8 -102 10 -51 2 -117 6 -147 8
-117 10 -196 17 -230 21 -19 3 -62 7 -95 11 -33 3 -71 7 -85 10 -14 2 -41 7
-60 9 -19 3 -65 10 -102 16 -37 6 -78 12 -90 14 -25 4 -59 10 -128 25 -25 5
-63 12 -85 16 -22 4 -44 9 -50 10 -5 2 -24 6 -40 9 -17 3 -85 19 -150 36 -66
16 -127 31 -135 33 -45 11 -107 28 -120 33 -20 8 -21 8 -55 17 -45 12 -369
120 -450 151 -232 88 -462 190 -691 306 -188 95 -407 218 -412 231 -2 4 -8 8
-13 8 -8 0 -125 70 -154 92 -5 4 -59 40 -120 80 -60 40 -114 76 -120 81 -5 4
-48 35 -95 68 -47 34 -91 68 -98 77 -6 9 -12 12 -12 6 0 -5 -4 -5 -8 1 -4 6
-23 22 -42 36 -19 15 -45 35 -57 45 -12 11 -36 30 -53 44 -18 14 -37 30 -44
35 -6 6 -54 46 -106 90 -197 165 -515 482 -694 690 -38 44 -75 87 -83 95 -16
18 -69 84 -103 129 -14 18 -30 38 -35 44 -6 7 -24 30 -40 52 -17 22 -40 51
-53 65 -12 14 -22 28 -22 32 0 5 -8 16 -17 26 -10 10 -42 54 -72 98 -30 43
-74 107 -98 141 -24 35 -43 67 -43 72 0 5 -3 11 -8 13 -10 4 -92 137 -92 149
0 5 -3 9 -8 9 -4 0 -23 28 -41 63 -19 34 -40 69 -47 77 -7 8 -12 17 -11 20 0
3 -16 33 -36 68 -20 35 -37 67 -37 72 0 4 -3 10 -7 12 -5 1 -43 75 -87 163
-43 88 -82 168 -87 178 -21 39 -118 268 -158 372 -24 61 -47 119 -51 130 -5
11 -23 61 -40 110 -17 50 -38 107 -46 127 -7 21 -11 38 -8 38 4 0 1 6 -5 13
-6 8 -12 22 -14 33 -8 42 -20 80 -29 91 -6 7 -8 19 -5 27 3 8 3 17 -1 21 -4 4
-7 10 -8 13 0 4 -4 14 -7 22 -7 16 -83 317 -91 360 -2 14 -7 32 -10 40 -3 8
-7 29 -10 45 -2 17 -10 55 -16 85 -15 74 -48 265 -55 320 -3 25 -8 56 -11 70
-2 14 -6 45 -9 70 -2 25 -6 60 -9 78 -2 18 -8 67 -11 110 -4 42 -9 93 -11 112
-10 99 -17 287 -18 467 -1 112 -5 203 -9 203 -5 0 -5 6 -1 12 5 7 9 47 11 88
6 203 19 381 39 550 2 19 6 60 9 90 4 30 8 62 10 70 2 8 7 39 10 69 4 30 9 63
11 75 2 12 7 37 10 56 5 33 8 55 19 110 3 14 7 36 10 50 27 149 130 573 143
595 4 6 7 15 8 20 4 25 38 141 44 150 3 6 15 39 25 75 11 36 24 68 30 72 5 4
7 8 3 8 -4 0 4 30 18 68 14 37 27 72 28 77 1 6 4 15 7 20 9 15 29 79 28 89 0
5 3 12 8 15 5 3 24 44 42 91 18 47 38 91 43 98 6 6 8 12 5 12 -3 0 8 27 24 60
16 33 29 63 29 65 0 8 151 309 192 385 20 36 44 81 55 100 10 19 25 46 34 60
8 14 46 77 84 140 68 112 222 350 234 360 3 3 11 12 16 22 17 27 98 142 109
154 6 7 20 24 31 40 32 45 235 295 295 364 177 203 487 511 675 671 22 19 45
39 51 44 6 6 28 24 48 40 36 28 50 40 101 83 11 10 36 28 55 42 19 13 44 32
54 42 11 10 38 30 60 45 23 15 43 31 46 34 3 4 48 36 100 73 52 36 100 69 105
73 12 10 93 64 117 78 9 5 56 35 105 66 84 53 208 127 338 199 67 38 410 210
418 210 3 0 44 18 93 41 48 22 96 42 107 45 10 2 24 7 31 12 12 10 219 92 230
92 5 0 22 6 39 14 67 29 115 45 121 39 3 -4 6 -2 6 3 0 5 8 10 18 11 9 1 28 6
42 11 14 5 28 10 32 11 4 1 23 8 43 17 19 8 35 11 35 8 0 -4 7 -1 15 6 8 7 15
10 15 7 0 -3 16 1 35 9 19 8 35 12 35 10 0 -3 16 2 36 10 20 8 39 13 42 10 3
-3 10 -2 16 3 9 7 87 29 196 56 134 33 200 48 225 52 62 10 70 11 70 13 0 1
11 3 25 6 14 2 50 9 80 15 30 5 69 12 85 15 17 3 39 6 50 8 11 2 56 9 101 15
44 6 90 13 102 16 25 4 142 17 192 21 19 1 35 3 35 4 0 2 65 7 178 13 49 3 91
7 93 10 6 6 772 0 864 -6z"/>
<path d="M6587 11154 c-1 -1 -54 -4 -117 -8 -151 -9 -225 -16 -330 -31 -14 -2
-50 -7 -80 -10 -30 -4 -64 -9 -75 -11 -11 -2 -40 -7 -65 -10 -46 -6 -51 -7
-130 -24 -25 -6 -58 -12 -73 -15 -16 -2 -56 -12 -90 -21 -34 -9 -73 -17 -87
-19 -14 -2 -26 -4 -27 -5 -2 -1 -6 -3 -10 -4 -30 -8 -100 -28 -111 -31 -7 -3
-14 -5 -17 -5 -3 0 -21 -6 -40 -14 -20 -9 -36 -15 -38 -14 -3 2 -81 -24 -92
-31 -5 -3 -12 -6 -15 -7 -3 0 -14 -4 -25 -8 -11 -5 -36 -14 -55 -21 -19 -7
-53 -21 -75 -31 -22 -10 -42 -18 -45 -19 -16 -3 -226 -111 -228 -117 -2 -4 -7
-8 -12 -8 -8 0 -83 -42 -124 -70 -13 -8 -42 -28 -65 -43 -220 -146 -435 -365
-590 -602 -65 -100 -191 -348 -197 -390 0 -5 -4 -17 -7 -25 -20 -52 -49 -137
-52 -150 -2 -8 -8 -33 -13 -55 -6 -22 -13 -52 -16 -67 -2 -15 -7 -32 -10 -37
-3 -4 -8 -28 -11 -52 -3 -24 -8 -57 -10 -74 -3 -16 -7 -48 -10 -70 -2 -22 -5
-40 -6 -40 -1 0 -3 -18 -4 -40 -2 -22 -4 -40 -5 -40 -3 0 -14 -335 -10 -345 1
-3 3 -39 5 -80 3 -87 20 -245 25 -245 1 0 4 -11 6 -25 4 -28 24 -117 38 -165
2 -5 6 -23 11 -40 4 -16 12 -36 18 -42 5 -7 6 -13 2 -13 -4 0 -3 -6 2 -12 5
-7 18 -35 28 -63 10 -27 25 -60 33 -72 8 -13 11 -23 7 -23 -3 0 3 -12 14 -26
12 -15 21 -31 21 -36 0 -15 112 -180 169 -248 60 -72 177 -187 231 -228 19
-15 44 -35 55 -46 50 -45 264 -178 391 -241 76 -39 141 -72 144 -75 3 -3 10
-6 15 -7 6 -1 33 -12 60 -24 28 -12 52 -23 55 -24 3 -1 14 -5 25 -9 45 -17 50
-19 55 -21 6 -1 120 -43 140 -52 8 -3 24 -8 34 -10 11 -2 25 -8 33 -14 7 -6
13 -9 13 -5 0 3 17 -1 38 -9 91 -35 478 -138 702 -186 110 -24 274 -58 310
-65 14 -3 57 -11 95 -19 39 -8 86 -17 105 -20 19 -3 42 -8 50 -10 8 -2 31 -6
50 -9 19 -3 46 -8 60 -11 14 -4 39 -8 55 -11 46 -8 66 -12 120 -24 28 -6 61
-12 75 -14 22 -3 98 -16 173 -31 15 -3 39 -7 55 -10 15 -3 47 -10 72 -15 25
-5 59 -12 75 -15 17 -3 41 -8 55 -11 14 -3 34 -7 45 -8 11 -2 27 -6 35 -9 8
-3 31 -8 50 -10 35 -5 53 -9 320 -74 240 -58 564 -165 669 -219 14 -8 31 -14
38 -14 6 0 18 -6 25 -12 7 -7 36 -24 63 -37 28 -13 76 -42 108 -63 32 -21 62
-38 67 -38 5 0 10 -3 12 -7 2 -5 25 -26 53 -48 72 -58 141 -131 187 -200 46
-68 98 -172 98 -196 0 -9 3 -19 8 -23 4 -4 8 -12 8 -17 1 -5 2 -10 4 -11 2 -4
7 -32 18 -108 12 -79 5 -335 -8 -335 0 0 -3 -19 -5 -43 -6 -69 -66 -248 -90
-264 -5 -4 -7 -8 -2 -8 4 0 -4 -18 -18 -40 -14 -22 -25 -42 -25 -46 0 -3 -10
-18 -22 -33 -13 -16 -36 -45 -53 -66 -43 -55 -134 -141 -185 -175 -12 -8 -28
-19 -34 -25 -46 -40 -287 -155 -406 -194 -94 -30 -277 -76 -341 -85 -19 -3
-45 -8 -59 -11 -14 -4 -43 -8 -65 -10 -22 -2 -40 -4 -40 -5 0 -7 -265 -30
-386 -34 -48 -2 -91 -6 -97 -10 -7 -4 -10 -213 -10 -627 l0 -620 146 5 c81 4
167 8 192 10 25 3 83 7 130 11 47 3 94 8 105 10 11 2 45 7 75 10 30 3 66 7 80
9 14 3 45 7 70 10 43 6 65 9 128 21 15 3 43 8 62 11 19 3 51 9 70 14 19 5 49
12 65 14 17 3 66 15 110 26 44 11 90 23 102 25 12 3 35 10 50 16 16 6 39 13
52 15 13 3 56 16 95 30 39 14 76 27 81 28 12 3 22 8 135 53 93 38 299 138 370
180 52 30 213 135 220 143 3 3 34 27 70 55 101 77 250 219 330 315 19 23 40
47 46 54 36 39 170 246 217 336 70 133 139 299 163 393 1 4 3 8 4 10 1 1 4 11
6 22 2 11 10 45 19 75 8 30 17 65 19 77 3 13 12 58 20 100 9 43 19 101 21 128
3 28 8 75 12 105 12 115 6 457 -11 565 -2 17 -7 50 -11 75 -9 70 -10 74 -18
88 -5 6 -5 16 -2 22 3 6 3 10 -2 10 -4 0 -9 11 -9 25 -1 14 -5 33 -10 43 -4 9
-8 19 -8 22 -9 41 -31 107 -37 115 -5 5 -9 14 -9 21 0 6 -14 42 -32 80 -17 38
-31 72 -30 77 1 4 -3 7 -8 7 -6 0 -10 5 -10 11 0 16 -93 168 -148 241 -122
163 -282 313 -467 439 -44 30 -81 57 -83 62 -2 4 -8 7 -13 7 -6 0 -34 16 -64
35 -30 19 -55 31 -55 27 0 -4 -4 -2 -8 4 -6 9 -251 132 -327 165 -58 24 -111
45 -210 81 -154 56 -264 92 -380 124 -5 2 -35 10 -65 19 -81 24 -386 103 -425
110 -11 2 -31 6 -45 10 -14 3 -34 8 -45 10 -11 2 -31 6 -45 9 -39 9 -73 16
-98 21 -13 2 -32 7 -43 10 -11 4 -32 8 -47 10 -15 2 -47 8 -72 14 -25 5 -58
12 -75 15 -16 3 -41 8 -55 11 -14 3 -36 8 -50 10 -14 2 -47 9 -75 15 -27 6
-65 13 -82 16 -18 2 -52 8 -75 13 -24 6 -56 12 -73 15 -16 3 -41 8 -55 11 -14
3 -40 8 -59 11 -18 3 -43 8 -55 10 -11 2 -34 6 -51 9 -25 4 -54 10 -95 20 -3
1 -25 5 -50 9 -74 14 -82 15 -155 31 -38 8 -83 17 -100 20 -36 7 -60 13 -60
15 0 1 -12 3 -26 5 -14 2 -45 9 -70 16 -24 7 -51 13 -59 14 -8 2 -26 5 -40 9
-14 3 -38 8 -55 12 -16 3 -37 8 -45 11 -8 3 -24 8 -34 10 -11 2 -67 17 -125
34 -58 17 -110 32 -116 34 -5 1 -17 5 -25 8 -8 3 -44 15 -80 28 -469 158 -741
383 -815 674 -25 96 -26 313 -2 455 1 8 6 21 11 28 4 7 6 16 3 19 -3 2 3 29
13 58 10 29 16 56 13 59 -4 3 -2 6 4 6 5 0 10 6 10 13 1 31 103 216 125 225 4
2 8 9 8 15 0 20 141 160 210 208 19 13 37 26 40 30 31 34 261 143 380 180 41
13 78 28 82 34 4 5 8 7 8 4 0 -4 46 4 103 18 56 13 119 26 140 28 21 2 41 6
45 9 5 3 35 8 68 11 32 3 75 8 94 10 112 13 147 16 263 19 71 3 131 7 134 10
3 2 11 2 18 0 10 -4 12 115 12 601 l1 606 -135 -2 c-73 -2 -135 -4 -136 -5z"/>
<path d="M7303 10549 l2 -612 30 -3 c92 -8 152 -16 220 -30 17 -3 44 -7 60 -9
17 -2 48 -9 70 -14 22 -6 41 -10 43 -11 1 0 3 0 5 -1 3 -1 24 -5 57 -12 36 -8
180 -53 215 -67 17 -7 39 -16 50 -20 128 -51 267 -130 375 -213 214 -166 376
-399 468 -672 6 -16 13 -39 18 -50 4 -11 9 -29 11 -40 6 -28 9 -38 16 -55 6
-14 13 -45 22 -95 2 -11 9 -45 15 -75 20 -99 26 -146 35 -265 3 -38 8 -77 10
-85 4 -14 86 -16 717 -15 l713 0 -1 110 c-2 114 -9 240 -19 310 -3 22 -7 63
-10 90 -2 28 -4 50 -5 50 -1 0 -3 9 -5 20 -14 92 -23 137 -41 220 -9 39 -18
81 -20 93 -12 63 -99 322 -139 418 -60 139 -108 232 -192 369 -7 11 -15 27
-19 35 -4 8 -10 17 -14 20 -3 3 -23 30 -45 60 -98 138 -279 335 -392 426 -27
21 -55 44 -63 51 -51 44 -252 183 -266 183 -3 0 -18 9 -34 20 -45 32 -278 146
-390 190 -137 55 -302 109 -405 134 -5 2 -28 8 -50 14 -22 6 -51 13 -65 16
-14 3 -65 14 -115 24 -88 20 -125 26 -202 37 -21 3 -48 8 -60 10 -12 3 -46 8
-75 11 -29 3 -64 7 -78 10 -14 2 -52 6 -85 9 -33 3 -80 8 -105 11 -25 2 -93 7
-152 10 l-106 5 1 -612z"/>
<path d="M3386 5672 c-2 -1 -1 -44 1 -95 2 -50 5 -134 6 -184 1 -51 5 -93 10
-93 4 0 6 -3 5 -7 -3 -10 11 -160 17 -193 3 -14 7 -43 10 -65 3 -22 7 -51 10
-65 3 -14 7 -38 10 -55 10 -60 35 -172 55 -250 6 -22 12 -47 14 -55 11 -39 59
-188 71 -215 12 -28 22 -55 26 -73 5 -19 55 -127 99 -212 66 -130 69 -135 123
-218 26 -40 47 -77 47 -82 0 -6 3 -10 8 -10 4 0 18 -17 32 -37 24 -36 44 -62
65 -87 6 -6 25 -29 44 -51 54 -65 176 -189 227 -231 25 -21 63 -54 83 -72 20
-19 48 -41 64 -50 15 -9 27 -20 27 -24 0 -4 6 -8 13 -8 7 0 24 -11 39 -25 15
-14 29 -25 32 -25 2 0 31 -17 63 -38 95 -63 279 -162 393 -211 30 -13 73 -32
95 -42 67 -30 254 -94 268 -91 4 1 7 -3 7 -9 0 -5 5 -7 10 -4 6 4 16 2 23 -3
7 -5 26 -13 42 -17 17 -4 37 -9 45 -11 8 -2 40 -10 70 -19 53 -15 198 -50 250
-61 39 -8 193 -36 215 -40 50 -8 86 -13 165 -24 138 -19 212 -28 305 -35 28
-2 86 -7 130 -11 44 -3 118 -7 165 -8 l85 -1 1 618 c1 419 -2 619 -9 624 -6 3
-33 7 -60 9 -48 2 -124 10 -194 20 -98 13 -166 24 -197 31 -11 2 -32 6 -46 8
-14 2 -54 10 -90 19 -36 9 -74 19 -86 21 -12 3 -40 12 -64 20 -23 8 -46 13
-50 10 -5 -3 -10 -2 -12 2 -1 5 -28 16 -58 27 -176 60 -325 140 -530 283 -36
25 -220 211 -256 258 -50 66 -109 156 -146 225 -31 57 -106 233 -113 264 -1 6
-5 18 -8 26 -45 117 -94 399 -102 585 l-2 60 -722 0 c-398 0 -724 -1 -725 -3z"/>
</g>
</svg>
